<mxfile host="Electron" agent="Mozilla/5.0 (Macintosh; Intel Mac OS X 10_15_7) AppleWebKit/537.36 (KHTML, like Gecko) draw.io/25.0.2 Chrome/128.0.6613.186 Electron/32.2.5 Safari/537.36" version="25.0.2">
  <diagram name="第 1 页" id="3GBt592NF7lpzxTvRcaW">
    <mxGraphModel dx="1912" dy="1139" grid="1" gridSize="10" guides="1" tooltips="1" connect="1" arrows="1" fold="1" page="1" pageScale="1" pageWidth="1169" pageHeight="827" math="0" shadow="0">
      <root>
        <mxCell id="0" />
        <mxCell id="1" parent="0" />
        <mxCell id="qaqH37PQUajp_f61--_8-28" value="" style="rounded=0;whiteSpace=wrap;html=1;strokeColor=none;fontFamily=Helvetica;fontSize=11;fontColor=default;labelBackgroundColor=default;" vertex="1" parent="1">
          <mxGeometry y="20" width="1150" height="680" as="geometry" />
        </mxCell>
        <mxCell id="qaqH37PQUajp_f61--_8-51" value="" style="rounded=1;whiteSpace=wrap;html=1;fontFamily=Helvetica;fontSize=11;labelBackgroundColor=none;fillColor=none;strokeWidth=2;strokeColor=#FF0000;" vertex="1" parent="1">
          <mxGeometry x="421" y="490" width="260" height="95" as="geometry" />
        </mxCell>
        <mxCell id="qaqH37PQUajp_f61--_8-10" style="edgeStyle=orthogonalEdgeStyle;rounded=0;orthogonalLoop=1;jettySize=auto;html=1;exitX=0.5;exitY=0;exitDx=0;exitDy=0;strokeWidth=2;endArrow=block;endFill=0;labelBackgroundColor=none;fontFamily=Comic Sans MS;fontSize=16;fontStyle=1" edge="1" parent="1" source="qaqH37PQUajp_f61--_8-4" target="qaqH37PQUajp_f61--_8-7">
          <mxGeometry relative="1" as="geometry" />
        </mxCell>
        <mxCell id="qaqH37PQUajp_f61--_8-4" value="&lt;div style=&quot;color: rgb(8, 8, 8);&quot;&gt;&lt;div&gt;&lt;span style=&quot;color:#000000;&quot;&gt;MpscGrowableArrayQueue&lt;/span&gt;&lt;/div&gt;&lt;/div&gt;" style="rounded=1;whiteSpace=wrap;html=1;fillColor=#dae8fc;strokeColor=#6c8ebf;sketch=1;curveFitting=1;jiggle=2;labelBackgroundColor=none;fontFamily=Comic Sans MS;fontSize=16;fontStyle=1" vertex="1" parent="1">
          <mxGeometry x="445" y="620" width="210" height="60" as="geometry" />
        </mxCell>
        <mxCell id="qaqH37PQUajp_f61--_8-11" style="edgeStyle=orthogonalEdgeStyle;shape=connector;rounded=0;orthogonalLoop=1;jettySize=auto;html=1;exitX=1;exitY=0.5;exitDx=0;exitDy=0;strokeColor=default;strokeWidth=2;align=center;verticalAlign=middle;fontFamily=Comic Sans MS;fontSize=16;fontColor=default;labelBackgroundColor=none;endArrow=block;endFill=0;fontStyle=1" edge="1" parent="1" source="qaqH37PQUajp_f61--_8-7" target="qaqH37PQUajp_f61--_8-8">
          <mxGeometry relative="1" as="geometry" />
        </mxCell>
        <mxCell id="qaqH37PQUajp_f61--_8-7" value="&lt;div style=&quot;color: rgb(8, 8, 8);&quot;&gt;&lt;div&gt;&lt;div&gt;&lt;div&gt;&lt;span style=&quot;color:#000000;&quot;&gt;MpscChunkedArrayQueue&lt;/span&gt;&lt;/div&gt;&lt;/div&gt;&lt;/div&gt;&lt;/div&gt;" style="rounded=1;whiteSpace=wrap;html=1;fillColor=#f5f5f5;strokeColor=#666666;sketch=1;curveFitting=1;jiggle=2;fontColor=#333333;labelBackgroundColor=none;fontFamily=Comic Sans MS;fontSize=16;fontStyle=1" vertex="1" parent="1">
          <mxGeometry x="445" y="510" width="210" height="60" as="geometry" />
        </mxCell>
        <mxCell id="qaqH37PQUajp_f61--_8-12" style="edgeStyle=orthogonalEdgeStyle;shape=connector;rounded=0;orthogonalLoop=1;jettySize=auto;html=1;exitX=0.5;exitY=0;exitDx=0;exitDy=0;strokeColor=default;strokeWidth=2;align=center;verticalAlign=middle;fontFamily=Comic Sans MS;fontSize=16;fontColor=default;labelBackgroundColor=none;endArrow=block;endFill=0;fontStyle=1" edge="1" parent="1" source="qaqH37PQUajp_f61--_8-8" target="qaqH37PQUajp_f61--_8-9">
          <mxGeometry relative="1" as="geometry" />
        </mxCell>
        <mxCell id="qaqH37PQUajp_f61--_8-8" value="&lt;div style=&quot;color: rgb(8, 8, 8);&quot;&gt;&lt;div&gt;&lt;div&gt;&lt;div&gt;&lt;div&gt;&lt;span style=&quot;color:#000000;&quot;&gt;MpscChunkedArrayQueueColdProducerFields&lt;/span&gt;&lt;/div&gt;&lt;/div&gt;&lt;/div&gt;&lt;/div&gt;&lt;/div&gt;" style="rounded=1;whiteSpace=wrap;html=1;fillColor=#f5f5f5;strokeColor=#666666;sketch=1;curveFitting=1;jiggle=2;fontColor=#333333;labelBackgroundColor=none;fontFamily=Comic Sans MS;fontSize=16;fontStyle=1" vertex="1" parent="1">
          <mxGeometry x="727.5" y="510" width="385" height="60" as="geometry" />
        </mxCell>
        <mxCell id="qaqH37PQUajp_f61--_8-26" style="edgeStyle=orthogonalEdgeStyle;shape=connector;rounded=0;orthogonalLoop=1;jettySize=auto;html=1;exitX=0.5;exitY=0;exitDx=0;exitDy=0;strokeColor=default;strokeWidth=2;align=center;verticalAlign=middle;fontFamily=Helvetica;fontSize=11;fontColor=default;labelBackgroundColor=default;endArrow=block;endFill=0;" edge="1" parent="1" source="qaqH37PQUajp_f61--_8-9" target="qaqH37PQUajp_f61--_8-13">
          <mxGeometry relative="1" as="geometry" />
        </mxCell>
        <mxCell id="qaqH37PQUajp_f61--_8-9" value="&lt;div style=&quot;color: rgb(8, 8, 8);&quot;&gt;&lt;div&gt;&lt;div&gt;&lt;div&gt;&lt;div&gt;&lt;div&gt;&lt;span style=&quot;color:#000000;&quot;&gt;BaseMpscLinkedArrayQueue&lt;/span&gt;&lt;/div&gt;&lt;/div&gt;&lt;/div&gt;&lt;/div&gt;&lt;/div&gt;&lt;/div&gt;" style="rounded=1;whiteSpace=wrap;html=1;fillColor=#f5f5f5;strokeColor=#666666;sketch=1;curveFitting=1;jiggle=2;fontColor=#333333;labelBackgroundColor=none;fontFamily=Comic Sans MS;fontSize=16;fontStyle=1" vertex="1" parent="1">
          <mxGeometry x="802.5" y="410" width="235" height="60" as="geometry" />
        </mxCell>
        <mxCell id="qaqH37PQUajp_f61--_8-25" style="edgeStyle=orthogonalEdgeStyle;shape=connector;rounded=0;orthogonalLoop=1;jettySize=auto;html=1;strokeColor=default;strokeWidth=2;align=center;verticalAlign=middle;fontFamily=Helvetica;fontSize=11;fontColor=default;labelBackgroundColor=default;endArrow=block;endFill=0;" edge="1" parent="1" source="qaqH37PQUajp_f61--_8-13" target="qaqH37PQUajp_f61--_8-14">
          <mxGeometry relative="1" as="geometry" />
        </mxCell>
        <mxCell id="qaqH37PQUajp_f61--_8-13" value="&lt;div style=&quot;color: rgb(8, 8, 8);&quot;&gt;&lt;div&gt;&lt;div&gt;&lt;div&gt;&lt;div&gt;&lt;div&gt;&lt;div&gt;&lt;span style=&quot;color:#000000;&quot;&gt;BaseMpscLinkedArrayQueueColdProducerFields&lt;/span&gt;&lt;/div&gt;&lt;/div&gt;&lt;/div&gt;&lt;/div&gt;&lt;/div&gt;&lt;/div&gt;&lt;/div&gt;" style="rounded=1;whiteSpace=wrap;html=1;fillColor=#f5f5f5;strokeColor=#666666;sketch=1;curveFitting=1;jiggle=2;fontColor=#333333;labelBackgroundColor=none;fontFamily=Comic Sans MS;fontSize=16;fontStyle=1" vertex="1" parent="1">
          <mxGeometry x="730" y="310" width="380" height="60" as="geometry" />
        </mxCell>
        <mxCell id="qaqH37PQUajp_f61--_8-24" style="edgeStyle=orthogonalEdgeStyle;shape=connector;rounded=0;orthogonalLoop=1;jettySize=auto;html=1;exitX=0;exitY=0.5;exitDx=0;exitDy=0;strokeColor=default;strokeWidth=2;align=center;verticalAlign=middle;fontFamily=Helvetica;fontSize=11;fontColor=default;labelBackgroundColor=default;endArrow=block;endFill=0;" edge="1" parent="1" source="qaqH37PQUajp_f61--_8-14" target="qaqH37PQUajp_f61--_8-15">
          <mxGeometry relative="1" as="geometry" />
        </mxCell>
        <mxCell id="qaqH37PQUajp_f61--_8-14" value="&lt;div style=&quot;color: rgb(8, 8, 8);&quot;&gt;&lt;div&gt;&lt;div&gt;&lt;div&gt;&lt;div&gt;&lt;div&gt;&lt;div&gt;&lt;div&gt;&lt;span style=&quot;color:#000000;&quot;&gt;BaseMpscLinkedArrayQueuePad3&lt;/span&gt;&lt;/div&gt;&lt;/div&gt;&lt;/div&gt;&lt;/div&gt;&lt;/div&gt;&lt;/div&gt;&lt;/div&gt;&lt;/div&gt;" style="rounded=1;whiteSpace=wrap;html=1;fillColor=#f5f5f5;strokeColor=#666666;sketch=1;curveFitting=1;jiggle=2;fontColor=#333333;labelBackgroundColor=none;fontFamily=Comic Sans MS;fontSize=16;fontStyle=1" vertex="1" parent="1">
          <mxGeometry x="410" y="310" width="280" height="60" as="geometry" />
        </mxCell>
        <mxCell id="qaqH37PQUajp_f61--_8-23" style="edgeStyle=orthogonalEdgeStyle;shape=connector;rounded=0;orthogonalLoop=1;jettySize=auto;html=1;strokeColor=default;strokeWidth=2;align=center;verticalAlign=middle;fontFamily=Helvetica;fontSize=11;fontColor=default;labelBackgroundColor=default;endArrow=block;endFill=0;" edge="1" parent="1" source="qaqH37PQUajp_f61--_8-15" target="qaqH37PQUajp_f61--_8-16">
          <mxGeometry relative="1" as="geometry" />
        </mxCell>
        <mxCell id="qaqH37PQUajp_f61--_8-15" value="&lt;div style=&quot;color: rgb(8, 8, 8);&quot;&gt;&lt;div&gt;&lt;div&gt;&lt;div&gt;&lt;div&gt;&lt;div&gt;&lt;div&gt;&lt;div&gt;&lt;div&gt;&lt;span style=&quot;color:#000000;&quot;&gt;BaseMpscLinkedArrayQueueConsumerFields&lt;/span&gt;&lt;/div&gt;&lt;/div&gt;&lt;/div&gt;&lt;/div&gt;&lt;/div&gt;&lt;/div&gt;&lt;/div&gt;&lt;/div&gt;&lt;/div&gt;" style="rounded=1;whiteSpace=wrap;html=1;fillColor=#f5f5f5;strokeColor=#666666;sketch=1;curveFitting=1;jiggle=2;fontColor=#333333;labelBackgroundColor=none;fontFamily=Comic Sans MS;fontSize=16;fontStyle=1" vertex="1" parent="1">
          <mxGeometry x="10" y="220" width="350" height="60" as="geometry" />
        </mxCell>
        <mxCell id="qaqH37PQUajp_f61--_8-22" style="edgeStyle=orthogonalEdgeStyle;shape=connector;rounded=0;orthogonalLoop=1;jettySize=auto;html=1;exitX=1;exitY=0.5;exitDx=0;exitDy=0;strokeColor=default;strokeWidth=2;align=center;verticalAlign=middle;fontFamily=Helvetica;fontSize=11;fontColor=default;labelBackgroundColor=default;endArrow=block;endFill=0;" edge="1" parent="1" source="qaqH37PQUajp_f61--_8-16" target="qaqH37PQUajp_f61--_8-17">
          <mxGeometry relative="1" as="geometry" />
        </mxCell>
        <mxCell id="qaqH37PQUajp_f61--_8-16" value="&lt;div style=&quot;color: rgb(8, 8, 8);&quot;&gt;&lt;div&gt;&lt;div&gt;&lt;div&gt;&lt;div&gt;&lt;div&gt;&lt;div&gt;&lt;div&gt;&lt;div&gt;&lt;span style=&quot;color:#000000;&quot;&gt;BaseMpscLinkedArrayQueuePad2&lt;/span&gt;&lt;/div&gt;&lt;/div&gt;&lt;/div&gt;&lt;/div&gt;&lt;/div&gt;&lt;/div&gt;&lt;/div&gt;&lt;/div&gt;&lt;/div&gt;" style="rounded=1;whiteSpace=wrap;html=1;fillColor=#f5f5f5;strokeColor=#666666;sketch=1;curveFitting=1;jiggle=2;fontColor=#333333;labelBackgroundColor=none;fontFamily=Comic Sans MS;fontSize=16;fontStyle=1" vertex="1" parent="1">
          <mxGeometry x="405" y="220" width="290" height="60" as="geometry" />
        </mxCell>
        <mxCell id="qaqH37PQUajp_f61--_8-21" style="edgeStyle=orthogonalEdgeStyle;shape=connector;rounded=0;orthogonalLoop=1;jettySize=auto;html=1;exitX=0;exitY=0.5;exitDx=0;exitDy=0;strokeColor=default;strokeWidth=2;align=center;verticalAlign=middle;fontFamily=Helvetica;fontSize=11;fontColor=default;labelBackgroundColor=default;endArrow=block;endFill=0;" edge="1" parent="1" source="qaqH37PQUajp_f61--_8-17" target="qaqH37PQUajp_f61--_8-18">
          <mxGeometry relative="1" as="geometry" />
        </mxCell>
        <mxCell id="qaqH37PQUajp_f61--_8-17" value="&lt;div style=&quot;color: rgb(8, 8, 8);&quot;&gt;&lt;div&gt;&lt;div&gt;&lt;div&gt;&lt;div&gt;&lt;div&gt;&lt;div&gt;&lt;div&gt;&lt;div&gt;&lt;div&gt;&lt;span style=&quot;color:#000000;&quot;&gt;BaseMpscLinkedArrayQueueProducerFields&lt;/span&gt;&lt;/div&gt;&lt;/div&gt;&lt;/div&gt;&lt;/div&gt;&lt;/div&gt;&lt;/div&gt;&lt;/div&gt;&lt;/div&gt;&lt;/div&gt;&lt;/div&gt;" style="rounded=1;whiteSpace=wrap;html=1;fillColor=#f5f5f5;strokeColor=#666666;sketch=1;curveFitting=1;jiggle=2;fontColor=#333333;labelBackgroundColor=none;fontFamily=Comic Sans MS;fontSize=16;fontStyle=1" vertex="1" parent="1">
          <mxGeometry x="740" y="120" width="380" height="60" as="geometry" />
        </mxCell>
        <mxCell id="qaqH37PQUajp_f61--_8-20" style="edgeStyle=orthogonalEdgeStyle;shape=connector;rounded=0;orthogonalLoop=1;jettySize=auto;html=1;exitX=0;exitY=0.5;exitDx=0;exitDy=0;entryX=1;entryY=0.5;entryDx=0;entryDy=0;strokeColor=default;strokeWidth=2;align=center;verticalAlign=middle;fontFamily=Helvetica;fontSize=11;fontColor=default;labelBackgroundColor=default;endArrow=block;endFill=0;" edge="1" parent="1" source="qaqH37PQUajp_f61--_8-18" target="qaqH37PQUajp_f61--_8-19">
          <mxGeometry relative="1" as="geometry" />
        </mxCell>
        <mxCell id="qaqH37PQUajp_f61--_8-18" value="&lt;div style=&quot;color: rgb(8, 8, 8);&quot;&gt;&lt;div&gt;&lt;div&gt;&lt;div&gt;&lt;div&gt;&lt;div&gt;&lt;div&gt;&lt;div&gt;&lt;div&gt;&lt;div&gt;&lt;div&gt;&lt;span style=&quot;color:#000000;&quot;&gt;BaseMpscLinkedArrayQueuePad1&lt;/span&gt;&lt;/div&gt;&lt;/div&gt;&lt;/div&gt;&lt;/div&gt;&lt;/div&gt;&lt;/div&gt;&lt;/div&gt;&lt;/div&gt;&lt;/div&gt;&lt;/div&gt;&lt;/div&gt;" style="rounded=1;whiteSpace=wrap;html=1;fillColor=#f5f5f5;strokeColor=#666666;sketch=1;curveFitting=1;jiggle=2;fontColor=#333333;labelBackgroundColor=none;fontFamily=Comic Sans MS;fontSize=16;fontStyle=1" vertex="1" parent="1">
          <mxGeometry x="400" y="120" width="300" height="60" as="geometry" />
        </mxCell>
        <mxCell id="qaqH37PQUajp_f61--_8-19" value="&lt;div style=&quot;color: rgb(8, 8, 8);&quot;&gt;&lt;div&gt;&lt;div&gt;&lt;div&gt;&lt;div&gt;&lt;div&gt;&lt;div&gt;&lt;div&gt;&lt;div&gt;&lt;div&gt;&lt;div&gt;&lt;div&gt;&lt;span style=&quot;color:#000000;&quot;&gt;java.util.AbstractQueue&lt;/span&gt;&lt;/div&gt;&lt;/div&gt;&lt;/div&gt;&lt;/div&gt;&lt;/div&gt;&lt;/div&gt;&lt;/div&gt;&lt;/div&gt;&lt;/div&gt;&lt;/div&gt;&lt;/div&gt;&lt;/div&gt;" style="rounded=1;whiteSpace=wrap;html=1;fillColor=#f5f5f5;strokeColor=#666666;sketch=1;curveFitting=1;jiggle=2;fontColor=#333333;labelBackgroundColor=none;fontFamily=Comic Sans MS;fontSize=16;fontStyle=1" vertex="1" parent="1">
          <mxGeometry x="140" y="120" width="220" height="60" as="geometry" />
        </mxCell>
        <mxCell id="qaqH37PQUajp_f61--_8-50" value="" style="rounded=1;whiteSpace=wrap;html=1;fontFamily=Helvetica;fontSize=11;labelBackgroundColor=none;fillColor=none;strokeWidth=2;strokeColor=#FF0000;" vertex="1" parent="1">
          <mxGeometry x="380" y="100" width="340" height="290" as="geometry" />
        </mxCell>
        <mxCell id="qaqH37PQUajp_f61--_8-53" style="edgeStyle=orthogonalEdgeStyle;shape=connector;rounded=0;orthogonalLoop=1;jettySize=auto;html=1;exitX=0.5;exitY=0;exitDx=0;exitDy=0;entryX=0.5;entryY=1;entryDx=0;entryDy=0;strokeColor=default;strokeWidth=2;align=center;verticalAlign=middle;fontFamily=Helvetica;fontSize=11;fontColor=default;labelBackgroundColor=default;endArrow=open;endFill=0;" edge="1" parent="1" source="qaqH37PQUajp_f61--_8-51" target="qaqH37PQUajp_f61--_8-52">
          <mxGeometry relative="1" as="geometry" />
        </mxCell>
        <mxCell id="qaqH37PQUajp_f61--_8-52" value="&lt;font face=&quot;Comic Sans MS&quot; style=&quot;font-size: 18px;&quot;&gt;避免内存伪共享问题&lt;/font&gt;" style="text;html=1;strokeColor=none;fillColor=none;align=center;verticalAlign=middle;whiteSpace=wrap;rounded=0;fontFamily=Helvetica;fontSize=11;fontColor=default;labelBackgroundColor=default;" vertex="1" parent="1">
          <mxGeometry x="456" y="425" width="190" height="30" as="geometry" />
        </mxCell>
        <mxCell id="qaqH37PQUajp_f61--_8-54" style="edgeStyle=orthogonalEdgeStyle;shape=connector;rounded=0;orthogonalLoop=1;jettySize=auto;html=1;exitX=0.5;exitY=1;exitDx=0;exitDy=0;entryX=0.494;entryY=0.167;entryDx=0;entryDy=0;entryPerimeter=0;strokeColor=default;strokeWidth=2;align=center;verticalAlign=middle;fontFamily=Helvetica;fontSize=11;fontColor=default;labelBackgroundColor=default;endArrow=open;endFill=0;" edge="1" parent="1" source="qaqH37PQUajp_f61--_8-50" target="qaqH37PQUajp_f61--_8-52">
          <mxGeometry relative="1" as="geometry" />
        </mxCell>
        <mxCell id="qaqH37PQUajp_f61--_8-55" value="&lt;font face=&quot;Comic Sans MS&quot; style=&quot;font-size: 18px;&quot;&gt;记录生产者操作索引 producerIndex&lt;/font&gt;" style="text;html=1;strokeColor=none;fillColor=none;align=center;verticalAlign=middle;whiteSpace=wrap;rounded=0;fontFamily=Helvetica;fontSize=11;fontColor=default;labelBackgroundColor=default;" vertex="1" parent="1">
          <mxGeometry x="880" y="30" width="200" height="50" as="geometry" />
        </mxCell>
        <mxCell id="qaqH37PQUajp_f61--_8-57" style="shape=connector;rounded=0;orthogonalLoop=1;jettySize=auto;html=1;exitX=0.5;exitY=1;exitDx=0;exitDy=0;entryX=0.679;entryY=-0.033;entryDx=0;entryDy=0;entryPerimeter=0;strokeColor=default;strokeWidth=2;align=center;verticalAlign=middle;fontFamily=Helvetica;fontSize=11;fontColor=default;labelBackgroundColor=default;endArrow=open;endFill=0;" edge="1" parent="1" source="qaqH37PQUajp_f61--_8-55" target="qaqH37PQUajp_f61--_8-17">
          <mxGeometry relative="1" as="geometry" />
        </mxCell>
        <mxCell id="qaqH37PQUajp_f61--_8-59" style="edgeStyle=none;shape=connector;rounded=0;orthogonalLoop=1;jettySize=auto;html=1;exitX=0.25;exitY=0;exitDx=0;exitDy=0;strokeColor=default;strokeWidth=2;align=center;verticalAlign=middle;fontFamily=Helvetica;fontSize=11;fontColor=default;labelBackgroundColor=default;endArrow=open;endFill=0;" edge="1" parent="1" source="qaqH37PQUajp_f61--_8-58">
          <mxGeometry relative="1" as="geometry">
            <mxPoint x="110" y="290" as="targetPoint" />
          </mxGeometry>
        </mxCell>
        <mxCell id="qaqH37PQUajp_f61--_8-58" value="&lt;font face=&quot;Comic Sans MS&quot; style=&quot;font-size: 18px;&quot;&gt;记录消费者相关字段&lt;/font&gt;" style="text;html=1;strokeColor=none;fillColor=none;align=center;verticalAlign=middle;whiteSpace=wrap;rounded=0;fontFamily=Helvetica;fontSize=11;fontColor=default;labelBackgroundColor=default;" vertex="1" parent="1">
          <mxGeometry x="30" y="350" width="200" height="50" as="geometry" />
        </mxCell>
        <mxCell id="qaqH37PQUajp_f61--_8-61" style="edgeStyle=none;shape=connector;rounded=0;orthogonalLoop=1;jettySize=auto;html=1;exitX=0.5;exitY=1;exitDx=0;exitDy=0;strokeColor=default;strokeWidth=2;align=center;verticalAlign=middle;fontFamily=Helvetica;fontSize=11;fontColor=default;labelBackgroundColor=default;endArrow=open;endFill=0;" edge="1" parent="1" source="qaqH37PQUajp_f61--_8-60">
          <mxGeometry relative="1" as="geometry">
            <mxPoint x="1010" y="300" as="targetPoint" />
          </mxGeometry>
        </mxCell>
        <mxCell id="qaqH37PQUajp_f61--_8-60" value="&lt;font face=&quot;Comic Sans MS&quot; style=&quot;font-size: 18px;&quot;&gt;记录生产者相关字段&lt;/font&gt;" style="text;html=1;strokeColor=none;fillColor=none;align=center;verticalAlign=middle;whiteSpace=wrap;rounded=0;fontFamily=Helvetica;fontSize=11;fontColor=default;labelBackgroundColor=default;" vertex="1" parent="1">
          <mxGeometry x="950" y="200" width="200" height="50" as="geometry" />
        </mxCell>
        <mxCell id="qaqH37PQUajp_f61--_8-63" style="edgeStyle=none;shape=connector;rounded=0;orthogonalLoop=1;jettySize=auto;html=1;exitX=0.5;exitY=1;exitDx=0;exitDy=0;strokeColor=default;strokeWidth=2;align=center;verticalAlign=middle;fontFamily=Helvetica;fontSize=11;fontColor=default;labelBackgroundColor=default;endArrow=open;endFill=0;" edge="1" parent="1" source="qaqH37PQUajp_f61--_8-62">
          <mxGeometry relative="1" as="geometry">
            <mxPoint x="1050" y="450" as="targetPoint" />
          </mxGeometry>
        </mxCell>
        <mxCell id="qaqH37PQUajp_f61--_8-62" value="&lt;font face=&quot;Comic Sans MS&quot; style=&quot;font-size: 18px;&quot;&gt;核心逻辑&lt;/font&gt;" style="text;html=1;strokeColor=none;fillColor=none;align=center;verticalAlign=middle;whiteSpace=wrap;rounded=0;fontFamily=Helvetica;fontSize=11;fontColor=default;labelBackgroundColor=default;" vertex="1" parent="1">
          <mxGeometry x="1037.5" y="380" width="120" height="50" as="geometry" />
        </mxCell>
      </root>
    </mxGraphModel>
  </diagram>
</mxfile>
